Coordinates
version=1
nRows=43
nColumns=12
inDegrees=yes

Units are S.I. units (second, meters, Newtons, ...)
Angles are in degrees

endheader
time	SC_y	SC_z	SC_x	AC_y	AC_z	AC_x	GH_y	GH_z	GH_yy	EL_x	PS_y
       0.0              -23.52          36.17          83.91          30.83         -12.72          13.93         -119.7          10.42         -13.75          125.8          30.58
   0.01003              -23.52          36.17           83.9          30.84         -12.72          13.92         -119.7          10.43         -13.77          125.8          30.59
   0.02006              -23.52          36.17          83.89          30.84         -12.72          13.92         -119.7          10.43         -13.79          125.8           30.6
   0.03009              -23.52          36.16          83.87          30.85         -12.71          13.91         -119.7          10.44         -13.82          125.8          30.61
   0.04012              -23.53          36.16          83.86          30.85         -12.71          13.91         -119.7          10.44         -13.84          125.8          30.63
   0.05015              -23.53          36.15          83.85          30.86         -12.71           13.9         -119.7          10.45         -13.87          125.8          30.64
   0.06017              -23.53          36.15          83.83          30.87          -12.7           13.9         -119.6          10.46          -13.9          125.8          30.65
    0.0702              -23.53          36.14          83.82          30.88          -12.7          13.89         -119.6          10.46         -13.93          125.8          30.67
   0.08023              -23.53          36.14           83.8          30.89          -12.7          13.88         -119.6          10.47         -13.96          125.8          30.69
   0.09026              -23.54          36.13          83.79           30.9         -12.69          13.87         -119.6          10.48         -13.99          125.8           30.7
    0.1003              -23.54          36.12          83.77          30.91         -12.69          13.87         -119.6          10.49         -14.03          125.8          30.72
    0.1103              -23.54          36.12          83.75          30.92         -12.68          13.86         -119.6           10.5         -14.07          125.8          30.74
    0.1203              -23.55          36.11          83.73          30.93         -12.67          13.85         -119.5          10.51         -14.12          125.8          30.77
    0.1304              -23.55           36.1           83.7          30.94         -12.67          13.84         -119.5          10.52         -14.16          125.8          30.79
    0.1404              -23.55          36.09          83.68          30.95         -12.66          13.82         -119.5          10.53         -14.21          125.8          30.82
    0.1504              -23.56          36.08          83.65          30.97         -12.65          13.81         -119.5          10.54         -14.27          125.8          30.84
    0.1605              -23.56          36.07          83.62          30.98         -12.65           13.8         -119.4          10.56         -14.33          125.7          30.88
    0.1705              -23.57          36.06          83.59           31.0         -12.64          13.78         -119.4          10.57         -14.39          125.7          30.91
    0.1805              -23.57          36.05          83.55          31.02         -12.63          13.77         -119.4          10.59         -14.47          125.7          30.95
    0.1906              -23.58          36.04          83.51          31.04         -12.62          13.75         -119.3          10.61         -14.54          125.7          30.99
    0.2006              -23.58          36.02          83.47          31.06          -12.6          13.73         -119.3          10.63         -14.63          125.7          31.03
    0.2106              -23.59          36.01          83.42          31.09         -12.59          13.71         -119.3          10.65         -14.72          125.7          31.08
    0.2206               -23.6          35.99          83.37          31.12         -12.58          13.69         -119.2          10.68         -14.83          125.7          31.13
    0.2307              -23.61          35.97          83.31          31.15         -12.56          13.66         -119.2           10.7         -14.94          125.6          31.19
    0.2407              -23.61          35.95          83.25          31.18         -12.54          13.63         -119.1          10.73         -15.07          125.6          31.26
    0.2507              -23.63          35.92          83.18          31.22         -12.52           13.6         -119.0          10.77         -15.21          125.6          31.33
    0.2608              -23.64           35.9           83.1          31.26          -12.5          13.56         -119.0          10.81         -15.37          125.6          31.41
    0.2708              -23.65          35.87          83.01          31.31         -12.48          13.52         -118.9          10.85         -15.56          125.5          31.51
    0.2808              -23.66          35.83           82.9          31.37         -12.45          13.48         -118.8           10.9         -15.76          125.5          31.61
    0.2908              -23.68          35.79          82.79          31.43         -12.42          13.42         -118.7          10.95         -15.99          125.5          31.73
    0.3009               -23.7          35.75          82.66           31.5         -12.38          13.36         -118.6          11.02         -16.26          125.4          31.87
    0.3109              -23.72          35.69          82.51          31.58         -12.34           13.3         -118.4          11.09         -16.56          125.4          32.02
    0.3209              -23.75          35.63          82.33          31.67         -12.29          13.22         -118.3          11.17         -16.91          125.3           32.2
     0.331              -23.78          35.57          82.13          31.78         -12.24          13.13         -118.1          11.27         -17.32          125.2          32.41
     0.341              -23.81          35.48          81.89          31.91         -12.17          13.02         -117.8          11.38         -17.79          125.2          32.66
     0.351              -23.85          35.39          81.61          32.06          -12.1          12.89         -117.6          11.51         -18.35          125.1          32.95
     0.361               -23.9          35.27          81.28          32.23         -12.01          12.74         -117.3          11.67         -19.02          124.9          33.29
    0.3711              -23.96          35.14          80.88          32.45          -11.9          12.56         -116.9          11.86         -19.82          124.8           33.7
    0.3811              -24.03          34.97           80.4           32.7         -11.77          12.34         -116.5          12.09         -20.79          124.6           34.2
    0.3911              -24.11          34.77          79.81          33.02         -11.61          12.08         -115.9          12.37         -21.97          124.4          34.81
    0.4012              -24.22          34.52          79.08          33.41         -11.41          11.75         -115.2          12.72         -23.43          124.2          35.56
    0.4112              -24.35          34.21          78.17          33.89         -11.16          11.34         -114.4          13.15         -25.24          123.9          36.49
    0.4212              -24.52          33.82          77.03           34.5         -10.85          10.82         -113.3          13.69         -27.53          123.5          37.67
